<?xml version="1.0" encoding="UTF-8"?>
<!DOCTYPE svg PUBLIC "-//W3C//DTD SVG 1.1//EN" "http://www.w3.org/Graphics/SVG/1.1/DTD/svg11.dtd">
<svg xmlns="http://www.w3.org/2000/svg" style="background: transparent; background-color: transparent; color-scheme: light dark;" xmlns:xlink="http://www.w3.org/1999/xlink" version="1.1" width="507px" height="1019px" viewBox="0 0 507 1019"><defs/><g><g data-cell-id="0"><g data-cell-id="1"><g data-cell-id="G-mF6UzgbZvdF5FhRVBf-3"><g><g><svg zoomAndPan="magnify" width="507" viewBox="0 0 507 1019" version="1.1" style="width: 507px; height: 1019px; background: rgb(255, 255, 255); font-family: initial;" preserveAspectRatio="none" height="1019" data-diagram-type="DESCRIPTION" xmlns:xlink="http://www.w3.org/1999/xlink" xmlns="http://www.w3.org/2000/svg" x="0" y="0"><defs/><g><g id="cluster_SportHub" data-uid="ent0005" data-source-line="9" data-entity="SportHub" class="cluster"><rect y="7" x="155" width="346" style="stroke:#181818;stroke-width:1;" ry="2.5" rx="2.5" height="1006" fill="none"/><text y="22.2344" x="300" textLength="56" lengthAdjust="spacing" font-weight="bold" font-size="14" font-family="sans-serif" fill="#000000">SportHub</text></g><g id="entity_ManageProfile" data-uid="ent0006" data-source-line="10" data-entity="ManageProfile" class="entity"><ellipse style="stroke:#181818;stroke-width:0.5;" ry="21.8527" rx="97.2633" fill="#F1F1F1" cy="61.8527" cx="327.7633"/><text y="65.5948" x="247.2633" textLength="161" lengthAdjust="spacing" font-size="14" font-family="sans-serif" fill="#000000">Gestionar Perfil Propio</text></g><g id="entity_Browse" data-uid="ent0007" data-source-line="11" data-entity="Browse" class="entity"><ellipse style="stroke:#181818;stroke-width:0.5;" ry="33.8244" rx="157.1219" fill="#F1F1F1" cy="152.8244" cx="328.1219"/><text y="156.5666" x="184.6219" textLength="287" lengthAdjust="spacing" font-size="14" font-family="sans-serif" fill="#000000">Buscar Centros y Consultar Disponibilidad</text></g><g id="entity_CreateBooking" data-uid="ent0008" data-source-line="12" data-entity="CreateBooking" class="entity"><ellipse style="stroke:#181818;stroke-width:0.5;" ry="17.4877" rx="75.4384" fill="#F1F1F1" cy="239.9877" cx="327.9384"/><text y="243.7299" x="271.9384" textLength="112" lengthAdjust="spacing" font-size="14" font-family="sans-serif" fill="#000000">Realizar Reserva</text></g><g id="entity_CancelBooking" data-uid="ent0009" data-source-line="13" data-entity="CancelBooking" class="entity"><ellipse style="stroke:#181818;stroke-width:0.5;" ry="17.4877" rx="75.4384" fill="#F1F1F1" cy="309.9877" cx="327.9384"/><text y="313.7299" x="271.9384" textLength="112" lengthAdjust="spacing" font-size="14" font-family="sans-serif" fill="#000000">Cancelar Reserva</text></g><g id="entity_ViewBookings" data-uid="ent0010" data-source-line="14" data-entity="ViewBookings" class="entity"><ellipse style="stroke:#181818;stroke-width:0.5;" ry="17.4877" rx="75.4384" fill="#F1F1F1" cy="379.9877" cx="327.9384"/><text y="383.7299" x="271.9384" textLength="112" lengthAdjust="spacing" font-size="14" font-family="sans-serif" fill="#000000">Ver Mis Reservas</text></g><g id="entity_ManageFacilities" data-uid="ent0011" data-source-line="16" data-entity="ManageFacilities" class="entity"><ellipse style="stroke:#181818;stroke-width:0.5;" ry="21.8527" rx="97.2633" fill="#F1F1F1" cy="454.8527" cx="327.7633"/><text y="458.5948" x="247.2633" textLength="161" lengthAdjust="spacing" font-size="14" font-family="sans-serif" fill="#000000">Gestionar Instalaciones</text></g><g id="entity_ManageSchedules" data-uid="ent0012" data-source-line="17" data-entity="ManageSchedules" class="entity"><ellipse style="stroke:#181818;stroke-width:0.5;" ry="25.768" rx="116.8401" fill="#F1F1F1" cy="537.768" cx="327.8401"/><text y="541.5102" x="226.3401" textLength="203" lengthAdjust="spacing" font-size="14" font-family="sans-serif" fill="#000000">Gestionar Horarios y Bloqueos</text></g><g id="entity_ViewCenterBookings" data-uid="ent0013" data-source-line="18" data-entity="ViewCenterBookings" class="entity"><ellipse style="stroke:#181818;stroke-width:0.5;" ry="28.4288" rx="130.1439" fill="#F1F1F1" cy="627.9288" cx="328.1439"/><text y="631.671" x="212.6439" textLength="231" lengthAdjust="spacing" font-size="14" font-family="sans-serif" fill="#000000">Ver Todas las Reservas del Centro</text></g><g id="entity_ManageStaff" data-uid="ent0014" data-source-line="19" data-entity="ManageStaff" class="entity"><ellipse style="stroke:#181818;stroke-width:0.5;" ry="25.768" rx="116.8401" fill="#F1F1F1" cy="717.768" cx="327.8401"/><text y="721.5102" x="226.3401" textLength="203" lengthAdjust="spacing" font-size="14" font-family="sans-serif" fill="#000000">Gestionar Personal del Centro</text></g><g id="entity_ManageUsers" data-uid="ent0015" data-source-line="21" data-entity="ManageUsers" class="entity"><ellipse style="stroke:#181818;stroke-width:0.5;" ry="23.7965" rx="106.9823" fill="#F1F1F1" cy="802.7965" cx="327.9823"/><text y="806.5387" x="236.9823" textLength="182" lengthAdjust="spacing" font-size="14" font-family="sans-serif" fill="#000000">Gestionar Usuarios y Roles</text></g><g id="entity_ManagePromotions" data-uid="ent0016" data-source-line="22" data-entity="ManagePromotions" class="entity"><ellipse style="stroke:#181818;stroke-width:0.5;" ry="26.4302" rx="120.1509" fill="#F1F1F1" cy="888.9302" cx="328.1509"/><text y="892.6724" x="223.1509" textLength="210" lengthAdjust="spacing" font-size="14" font-family="sans-serif" fill="#000000">Gestionar Promociones Globales</text></g><g id="entity_ViewStats" data-uid="ent0017" data-source-line="23" data-entity="ViewStats" class="entity"><ellipse style="stroke:#181818;stroke-width:0.5;" ry="23.145" rx="103.7252" fill="#F1F1F1" cy="974.145" cx="328.2252"/><text y="977.8872" x="240.7252" textLength="175" lengthAdjust="spacing" font-size="14" font-family="sans-serif" fill="#000000">Ver Estadísticas Globales</text></g><g id="entity_Player" data-uid="ent0002" data-source-line="5" data-entity="Player" class="entity"><ellipse style="stroke:#181818;stroke-width:0.5;" ry="8" rx="8" fill="#F1F1F1" cy="211" cx="58.5"/><path style="stroke:#181818;stroke-width:0.5;" fill="none" d="M58.5,219 L58.5,246 M45.5,227 L71.5,227 M58.5,246 L45.5,261 M58.5,246 L71.5,261"/><text y="275.7344" x="34" textLength="49" lengthAdjust="spacing" font-size="14" font-family="sans-serif" fill="#000000">Jugador</text></g><g id="entity_CenterAdmin" data-uid="ent0003" data-source-line="6" data-entity="CenterAdmin" class="entity"><ellipse style="stroke:#181818;stroke-width:0.5;" ry="8" rx="8" fill="#F1F1F1" cy="554" cx="58.5"/><path style="stroke:#181818;stroke-width:0.5;" fill="none" d="M58.5,562 L58.5,589 M45.5,570 L71.5,570 M58.5,589 L45.5,604 M58.5,589 L71.5,604"/><text y="618.7344" x="6" textLength="105" lengthAdjust="spacing" font-size="14" font-family="sans-serif" fill="#000000">Admin de Centro</text></g><g id="entity_GlobalAdmin" data-uid="ent0004" data-source-line="7" data-entity="GlobalAdmin" class="entity"><ellipse style="stroke:#181818;stroke-width:0.5;" ry="8" rx="8" fill="#F1F1F1" cy="860" cx="58.5"/><path style="stroke:#181818;stroke-width:0.5;" fill="none" d="M58.5,868 L58.5,895 M45.5,876 L71.5,876 M58.5,895 L45.5,910 M58.5,895 L71.5,910"/><text y="924.7344" x="16.5" textLength="84" lengthAdjust="spacing" font-size="14" font-family="sans-serif" fill="#000000">Admin Global</text></g><g id="link_Player_ManageProfile" data-uid="lnk18" data-source-line="25" data-entity-2="ManageProfile" data-entity-1="Player" class="link"><path style="stroke:#181818;stroke-width:1;" id="Player-ManageProfile" fill="none" d="M73.38,202.45 C87.15,170.5 111.39,125.95 147,101 C172.27,83.29 204.07,73.4 233.88,67.93"/></g><g id="link_Player_Browse" data-uid="lnk19" data-source-line="26" data-entity-2="Browse" data-entity-1="Player" class="link"><path style="stroke:#181818;stroke-width:1;" id="Player-Browse" fill="none" d="M83.03,229.85 C100.51,222.49 125.03,212.55 147,205 C173.3,195.97 202.11,187.16 228.83,179.45"/></g><g id="link_Player_CreateBooking" data-uid="lnk20" data-source-line="27" data-entity-2="CreateBooking" data-entity-1="Player" class="link"><path style="stroke:#181818;stroke-width:1;" id="Player-CreateBooking" fill="none" d="M83.24,240 C120.77,240 195.37,240 252.21,240"/></g><g id="link_Player_CancelBooking" data-uid="lnk21" data-source-line="28" data-entity-2="CancelBooking" data-entity-1="Player" class="link"><path style="stroke:#181818;stroke-width:1;" id="Player-CancelBooking" fill="none" d="M83.21,250.9 C100.57,258.53 124.87,268.49 147,275 C185.17,286.24 228.98,294.85 263.83,300.71"/></g><g id="link_Player_ViewBookings" data-uid="lnk22" data-source-line="29" data-entity-2="ViewBookings" data-entity-1="Player" class="link"><path style="stroke:#181818;stroke-width:1;" id="Player-ViewBookings" fill="none" d="M81.36,277.53 C96.77,300.6 119.53,328.75 147,345 C178.92,363.88 219.07,372.82 253.34,376.97"/></g><g id="link_CenterAdmin_ManageFacilities" data-uid="lnk23" data-source-line="31" data-entity-2="ManageFacilities" data-entity-1="CenterAdmin" class="link"><path style="stroke:#181818;stroke-width:1;" id="CenterAdmin-ManageFacilities" fill="none" d="M87.68,545.41 C103.23,527.23 124.04,506.65 147,494 C174.72,478.72 207.93,469.43 238.22,463.78"/></g><g id="link_CenterAdmin_ManageSchedules" data-uid="lnk24" data-source-line="32" data-entity-2="ManageSchedules" data-entity-1="CenterAdmin" class="link"><path style="stroke:#181818;stroke-width:1;" id="CenterAdmin-ManageSchedules" fill="none" d="M111.08,574.32 C145.92,568.46 192.91,560.56 234.16,553.62"/></g><g id="link_CenterAdmin_ViewCenterBookings" data-uid="lnk25" data-source-line="33" data-entity-2="ViewCenterBookings" data-entity-1="CenterAdmin" class="link"><path style="stroke:#181818;stroke-width:1;" id="CenterAdmin-ViewCenterBookings" fill="none" d="M111.08,591.68 C143.19,597.08 185.61,604.22 224.35,610.73"/></g><g id="link_CenterAdmin_ManageStaff" data-uid="lnk26" data-source-line="34" data-entity-2="ManageStaff" data-entity-1="CenterAdmin" class="link"><path style="stroke:#181818;stroke-width:1;" id="CenterAdmin-ManageStaff" fill="none" d="M87.28,620.73 C102.87,639.37 123.83,660.66 147,674 C171.53,688.12 200.47,697.74 227.88,704.27"/></g><g id="link_GlobalAdmin_ManageUsers" data-uid="lnk27" data-source-line="36" data-entity-2="ManageUsers" data-entity-1="GlobalAdmin" class="link"><path style="stroke:#181818;stroke-width:1;" id="GlobalAdmin-ManageUsers" fill="none" d="M100.89,865.67 C115.17,858.3 131.49,850.62 147,845 C178.08,833.74 213.28,824.74 244.27,818.01"/></g><g id="link_GlobalAdmin_ManagePromotions" data-uid="lnk28" data-source-line="37" data-entity-2="ManagePromotions" data-entity-1="GlobalAdmin" class="link"><path style="stroke:#181818;stroke-width:1;" id="GlobalAdmin-ManagePromotions" fill="none" d="M100.71,889 C129.51,889 169.53,889 207.92,889"/></g><g id="link_GlobalAdmin_ViewStats" data-uid="lnk29" data-source-line="38" data-entity-2="ViewStats" data-entity-1="GlobalAdmin" class="link"><path style="stroke:#181818;stroke-width:1;" id="GlobalAdmin-ViewStats" fill="none" d="M100.87,912.38 C115.16,919.76 131.48,927.42 147,933 C178.67,944.38 214.64,953.32 246.06,959.91"/></g></g></svg></g></g></g></g></g></g></svg>